ffmpeg started on 2025-06-28 at 17:56:39
Report written to "D:\Convert\FFMetrics\reports\psnr_report-6.txt"
Log level: 32
Command line:
ffmpeg -hide_banner -nostdin -i "G:\\\xc0\xed\xe8\xec\xe5\\\xce\xed\xe3\xee\xe8\xed\xe3\xe8\\!_37_\xc7\xe8\xec\xe0_2025\\JamClub\\100 \xe4\xe5\xe2\xf3\xf8\xe5\xea, \xea\xee\xf2\xee\xf0\xfb\xe5 \xee\xf7\xe5\xed\xfc-\xee\xf7\xe5\xed\xfc-\xee\xf7\xe5\xed\xfc-\xee\xf7\xe5\xed\xfc-\xee\xf7\xe5\xed\xfc \xf1\xe8\xeb\xfc\xed\xee \xf2\xe5\xe1\xff \xeb\xfe\xe1\xff\xf2\\\xd2\xc2-2\\JamClub_The_100_Girlfriends_Who_Really_Really_Really_Really_REALLY_2_04_HEVC.mkv" -i "G:\\\xc0\xed\xe8\xec\xe5\\\xce\xed\xe3\xee\xe8\xed\xe3\xe8\\!_37_\xc7\xe8\xec\xe0_2025\\JamClub\\100 \xe4\xe5\xe2\xf3\xf8\xe5\xea, \xea\xee\xf2\xee\xf0\xfb\xe5 \xee\xf7\xe5\xed\xfc-\xee\xf7\xe5\xed\xfc-\xee\xf7\xe5\xed\xfc-\xee\xf7\xe5\xed\xfc-\xee\xf7\xe5\xed\xfc \xf1\xe8\xeb\xfc\xed\xee \xf2\xe5\xe1\xff \xeb\xfe\xe1\xff\xf2\\\xd2\xc2-2\\JamClub_The_100_Girlfriends_Who_Really_Really_Really_Really_REALLY_2_04.mp4" -lavfi "[0:v]settb=AVTB,setpts=PTS-STARTPTS,format=pix_fmts=yuv420p10,fps=24000/1001,scale=1920:1080:flags=bicubic[main];[1:v]settb=AVTB,setpts=PTS-STARTPTS,format=pix_fmts=yuv420p,fps=24000/1001,scale=1920:1080:flags=bicubic[ref];[main][ref]psnr=eof_action=endall:stats_file='D\\:/Convert/FFMetrics/logs/psnr_logfile-6.txt'" -f null -
Input #0, matroska,webm, from 'G:\Аниме\Онгоинги\!_37_Зима_2025\JamClub\100 девушек, которые очень-очень-очень-очень-очень сильно тебя любят\ТВ-2\JamClub_The_100_Girlfriends_Who_Really_Really_Really_Really_REALLY_2_04_HEVC.mkv':
  Metadata:
    COMPATIBLE_BRANDS: isomiso2avc1mp41
    MAJOR_BRAND     : isom
    MINOR_VERSION   : 512
    ENCODER         : Lavf61.7.100
  Duration: 00:24:12.27, start: -0.001000, bitrate: 1601 kb/s
  Stream #0:0: Video: hevc (Main 10), yuv420p10le(tv, bt709, progressive), 1920x1080 [SAR 1:1 DAR 16:9], 23.98 fps, 23.98 tbr, 1k tbn (default)
      Metadata:
        HANDLER_NAME    : VideoHandler
        VENDOR_ID       : [0][0][0][0]
        ENCODER         : Lavc61.19.100 libx265
        BPS             : 1404723
        DURATION        : 00:24:12.200708333
        NUMBER_OF_FRAMES: 34818
        NUMBER_OF_BYTES : 254992510
        _STATISTICS_WRITING_APP: mkvpropedit v66.0.0 ('Josie') 64-bit
        _STATISTICS_WRITING_DATE_UTC: 2025-06-28 12:54:51
        _STATISTICS_TAGS: BPS DURATION NUMBER_OF_FRAMES NUMBER_OF_BYTES
  Stream #0:1(eng): Audio: aac (LC), 48000 Hz, stereo, fltp (default)
      Metadata:
        HANDLER_NAME    : SoundHandler
        VENDOR_ID       : [0][0][0][0]
        ENCODER         : Lavc61.19.100 aac
        BPS             : 192661
        DURATION        : 00:24:12.227000000
        NUMBER_OF_FRAMES: 68074
        NUMBER_OF_BYTES : 34973573
        _STATISTICS_WRITING_APP: mkvpropedit v66.0.0 ('Josie') 64-bit
        _STATISTICS_WRITING_DATE_UTC: 2025-06-28 12:54:51
        _STATISTICS_TAGS: BPS DURATION NUMBER_OF_FRAMES NUMBER_OF_BYTES
Input #1, mov,mp4,m4a,3gp,3g2,mj2, from 'G:\Аниме\Онгоинги\!_37_Зима_2025\JamClub\100 девушек, которые очень-очень-очень-очень-очень сильно тебя любят\ТВ-2\JamClub_The_100_Girlfriends_Who_Really_Really_Really_Really_REALLY_2_04.mp4':
  Metadata:
    major_brand     : isom
    minor_version   : 512
    compatible_brands: isomiso2avc1mp41
    encoder         : Lavf60.16.100
  Duration: 00:24:12.25, start: 0.000000, bitrate: 4706 kb/s
  Stream #1:0[0x1](und): Video: h264 (High) (avc1 / 0x31637661), yuv420p(progressive), 1920x1080 [SAR 1:1 DAR 16:9], 4508 kb/s, 23.98 fps, 23.98 tbr, 90k tbn (default)
      Metadata:
        handler_name    : VideoHandler
        vendor_id       : [0][0][0][0]
  Stream #1:1[0x2](eng): Audio: aac (LC) (mp4a / 0x6134706D), 48000 Hz, stereo, fltp, 191 kb/s (default)
      Metadata:
        handler_name    : SoundHandler
        vendor_id       : [0][0][0][0]
Stream mapping:
  Stream #0:0 (hevc) -> settb:default
  Stream #1:0 (h264) -> settb:default
  psnr:default -> Stream #0:0 (wrapped_avframe)
  Stream #0:1 -> #0:1 (aac (native) -> pcm_s16le (native))
Output #0, null, to 'pipe:':
  Metadata:
    COMPATIBLE_BRANDS: isomiso2avc1mp41
    MAJOR_BRAND     : isom
    MINOR_VERSION   : 512
    encoder         : Lavf61.7.100
  Stream #0:0: Video: wrapped_avframe, yuv420p10le(tv, bt709, progressive), 1920x1080 [SAR 1:1 DAR 16:9], q=2-31, 200 kb/s, 23.98 fps, 23.98 tbn
      Metadata:
        encoder         : Lavc61.19.100 wrapped_avframe
  Stream #0:1(eng): Audio: pcm_s16le, 48000 Hz, stereo, s16, 1536 kb/s (default)
      Metadata:
        HANDLER_NAME    : SoundHandler
        VENDOR_ID       : [0][0][0][0]
        _STATISTICS_TAGS: BPS DURATION NUMBER_OF_FRAMES NUMBER_OF_BYTES
        BPS             : 192661
        DURATION        : 00:24:12.227000000
        NUMBER_OF_FRAMES: 68074
        NUMBER_OF_BYTES : 34973573
        _STATISTICS_WRITING_APP: mkvpropedit v66.0.0 ('Josie') 64-bit
        _STATISTICS_WRITING_DATE_UTC: 2025-06-28 12:54:51
        encoder         : Lavc61.19.100 pcm_s16le
frame=  112 fps=0.0 q=-0.0 size=N/A time=00:00:04.67 bitrate=N/A speed=9.29x    frame=  279 fps=271 q=-0.0 size=N/A time=00:00:11.63 bitrate=N/A speed=11.3x    frame=  478 fps=310 q=-0.0 size=N/A time=00:00:19.93 bitrate=N/A speed=12.9x    frame=  647 fps=316 q=-0.0 size=N/A time=00:00:26.98 bitrate=N/A speed=13.2x    frame=  907 fps=352 q=-0.0 size=N/A time=00:00:37.82 bitrate=N/A speed=14.7x    frame= 1159 fps=376 q=-0.0 size=N/A time=00:00:48.33 bitrate=N/A speed=15.7x    frame= 1393 fps=387 q=-0.0 size=N/A time=00:00:58.09 bitrate=N/A speed=16.2x    frame= 1603 fps=389 q=-0.0 size=N/A time=00:01:06.85 bitrate=N/A speed=16.2x    frame= 1826 fps=394 q=-0.0 size=N/A time=00:01:16.15 bitrate=N/A speed=16.4x    frame= 2056 fps=400 q=-0.0 size=N/A time=00:01:25.75 bitrate=N/A speed=16.7x    frame= 2253 fps=397 q=-0.0 size=N/A time=00:01:33.96 bitrate=N/A speed=16.6x    frame= 2482 fps=401 q=-0.0 size=N/A time=00:01:43.52 bitrate=N/A speed=16.7x    frame= 2644 fps=395 q=-0.0 size=N/A time=00:01:50.27 bitrate=N/A speed=16.5x    frame= 2798 fps=388 q=-0.0 size=N/A time=00:01:56.69 bitrate=N/A speed=16.2x    frame= 2988 fps=386 q=-0.0 size=N/A time=00:02:04.62 bitrate=N/A speed=16.1x    frame= 3145 fps=382 q=-0.0 size=N/A time=00:02:11.17 bitrate=N/A speed=15.9x    frame= 3375 fps=386 q=-0.0 size=N/A time=00:02:20.76 bitrate=N/A speed=16.1x    frame= 3640 fps=392 q=-0.0 size=N/A time=00:02:31.81 bitrate=N/A speed=16.4x    frame= 3882 fps=397 q=-0.0 size=N/A time=00:02:41.91 bitrate=N/A speed=16.5x    frame= 4109 fps=399 q=-0.0 size=N/A time=00:02:51.37 bitrate=N/A speed=16.6x    frame= 4372 fps=404 q=-0.0 size=N/A time=00:03:02.34 bitrate=N/A speed=16.8x    frame= 4583 fps=404 q=-0.0 size=N/A time=00:03:11.14 bitrate=N/A speed=16.9x    frame= 4814 fps=406 q=-0.0 size=N/A time=00:03:20.78 bitrate=N/A speed=16.9x    frame= 5008 fps=405 q=-0.0 size=N/A time=00:03:28.87 bitrate=N/A speed=16.9x    frame= 5202 fps=404 q=-0.0 size=N/A time=00:03:36.96 bitrate=N/A speed=16.8x    frame= 5420 fps=405 q=-0.0 size=N/A time=00:03:46.05 bitrate=N/A speed=16.9x    frame= 5616 fps=404 q=-0.0 size=N/A time=00:03:54.23 bitrate=N/A speed=16.8x    frame= 5842 fps=405 q=-0.0 size=N/A time=00:04:03.66 bitrate=N/A speed=16.9x    frame= 6094 fps=408 q=-0.0 size=N/A time=00:04:14.17 bitrate=N/A speed=  17x    frame= 6330 fps=409 q=-0.0 size=N/A time=00:04:24.01 bitrate=N/A speed=17.1x    frame= 6596 fps=413 q=-0.0 size=N/A time=00:04:35.10 bitrate=N/A speed=17.2x    frame= 6849 fps=415 q=-0.0 size=N/A time=00:04:45.66 bitrate=N/A speed=17.3x    frame= 7106 fps=418 q=-0.0 size=N/A time=00:04:56.37 bitrate=N/A speed=17.4x    frame= 7375 fps=421 q=-0.0 size=N/A time=00:05:07.59 bitrate=N/A speed=17.5x    frame= 7618 fps=422 q=-0.0 size=N/A time=00:05:17.73 bitrate=N/A speed=17.6x    frame= 7838 fps=422 q=-0.0 size=N/A time=00:05:26.90 bitrate=N/A speed=17.6x    frame= 8092 fps=424 q=-0.0 size=N/A time=00:05:37.50 bitrate=N/A speed=17.7x    frame= 8337 fps=425 q=-0.0 size=N/A time=00:05:47.72 bitrate=N/A speed=17.7x    frame= 8586 fps=427 q=-0.0 size=N/A time=00:05:58.10 bitrate=N/A speed=17.8x    frame= 8838 fps=428 q=-0.0 size=N/A time=00:06:08.61 bitrate=N/A speed=17.9x    frame= 9109 fps=431 q=-0.0 size=N/A time=00:06:19.92 bitrate=N/A speed=  18x    frame= 9384 fps=433 q=-0.0 size=N/A time=00:06:31.39 bitrate=N/A speed=18.1x    frame= 9641 fps=435 q=-0.0 size=N/A time=00:06:42.11 bitrate=N/A speed=18.1x    frame= 9908 fps=437 q=-0.0 size=N/A time=00:06:53.24 bitrate=N/A speed=18.2x    frame=10139 fps=437 q=-0.0 size=N/A time=00:07:02.88 bitrate=N/A speed=18.2x    frame=10421 fps=439 q=-0.0 size=N/A time=00:07:14.64 bitrate=N/A speed=18.3x    frame=10667 fps=440 q=-0.0 size=N/A time=00:07:24.90 bitrate=N/A speed=18.4x    frame=10924 fps=441 q=-0.0 size=N/A time=00:07:35.62 bitrate=N/A speed=18.4x    frame=11163 fps=442 q=-0.0 size=N/A time=00:07:45.59 bitrate=N/A speed=18.4x    frame=11378 fps=441 q=-0.0 size=N/A time=00:07:54.55 bitrate=N/A speed=18.4x    frame=11637 fps=442 q=-0.0 size=N/A time=00:08:05.35 bitrate=N/A speed=18.5x    frame=11848 fps=442 q=-0.0 size=N/A time=00:08:14.16 bitrate=N/A speed=18.4x    frame=12119 fps=443 q=-0.0 size=N/A time=00:08:25.46 bitrate=N/A speed=18.5x    frame=12337 fps=443 q=-0.0 size=N/A time=00:08:34.55 bitrate=N/A speed=18.5x    frame=12590 fps=444 q=-0.0 size=N/A time=00:08:45.10 bitrate=N/A speed=18.5x    frame=12855 fps=445 q=-0.0 size=N/A time=00:08:56.16 bitrate=N/A speed=18.6x    frame=13084 fps=445 q=-0.0 size=N/A time=00:09:05.75 bitrate=N/A speed=18.6x    frame=13305 fps=444 q=-0.0 size=N/A time=00:09:14.92 bitrate=N/A speed=18.5x    frame=13568 fps=446 q=-0.0 size=N/A time=00:09:25.89 bitrate=N/A speed=18.6x    frame=13804 fps=446 q=-0.0 size=N/A time=00:09:35.74 bitrate=N/A speed=18.6x    frame=14052 fps=446 q=-0.0 size=N/A time=00:09:46.08 bitrate=N/A speed=18.6x    frame=14269 fps=446 q=-0.0 size=N/A time=00:09:55.13 bitrate=N/A speed=18.6x    frame=14534 fps=447 q=-0.0 size=N/A time=00:10:06.18 bitrate=N/A speed=18.7x    frame=14792 fps=448 q=-0.0 size=N/A time=00:10:16.94 bitrate=N/A speed=18.7x    frame=15065 fps=449 q=-0.0 size=N/A time=00:10:28.33 bitrate=N/A speed=18.7x    frame=15338 fps=450 q=-0.0 size=N/A time=00:10:39.72 bitrate=N/A speed=18.8x    frame=15591 fps=451 q=-0.0 size=N/A time=00:10:50.27 bitrate=N/A speed=18.8x    frame=15849 fps=452 q=-0.0 size=N/A time=00:11:01.03 bitrate=N/A speed=18.8x    frame=16114 fps=453 q=-0.0 size=N/A time=00:11:12.08 bitrate=N/A speed=18.9x    frame=16385 fps=454 q=-0.0 size=N/A time=00:11:23.39 bitrate=N/A speed=18.9x    frame=16607 fps=453 q=-0.0 size=N/A time=00:11:32.65 bitrate=N/A speed=18.9x    frame=16866 fps=454 q=-0.0 size=N/A time=00:11:43.45 bitrate=N/A speed=18.9x    frame=17122 fps=455 q=-0.0 size=N/A time=00:11:54.13 bitrate=N/A speed=  19x    frame=17322 fps=454 q=-0.0 size=N/A time=00:12:02.47 bitrate=N/A speed=18.9x    frame=17539 fps=453 q=-0.0 size=N/A time=00:12:11.52 bitrate=N/A speed=18.9x    frame=17752 fps=453 q=-0.0 size=N/A time=00:12:20.40 bitrate=N/A speed=18.9x    frame=17987 fps=453 q=-0.0 size=N/A time=00:12:30.20 bitrate=N/A speed=18.9x    frame=18238 fps=453 q=-0.0 size=N/A time=00:12:40.67 bitrate=N/A speed=18.9x    frame=18497 fps=454 q=-0.0 size=N/A time=00:12:51.47 bitrate=N/A speed=18.9x    frame=18727 fps=454 q=-0.0 size=N/A time=00:13:01.07 bitrate=N/A speed=18.9x    frame=18996 fps=455 q=-0.0 size=N/A time=00:13:12.29 bitrate=N/A speed=  19x    frame=19289 fps=456 q=-0.0 size=N/A time=00:13:24.51 bitrate=N/A speed=  19x    frame=19544 fps=456 q=-0.0 size=N/A time=00:13:35.14 bitrate=N/A speed=  19x    frame=19745 fps=456 q=-0.0 size=N/A time=00:13:43.53 bitrate=N/A speed=  19x    frame=19984 fps=456 q=-0.0 size=N/A time=00:13:53.49 bitrate=N/A speed=  19x    frame=20220 fps=456 q=-0.0 size=N/A time=00:14:03.34 bitrate=N/A speed=  19x    frame=20478 fps=456 q=-0.0 size=N/A time=00:14:14.10 bitrate=N/A speed=  19x    frame=20729 fps=457 q=-0.0 size=N/A time=00:14:24.57 bitrate=N/A speed=  19x    frame=20931 fps=456 q=-0.0 size=N/A time=00:14:32.99 bitrate=N/A speed=  19x    frame=21168 fps=456 q=-0.0 size=N/A time=00:14:42.88 bitrate=N/A speed=  19x    frame=21412 fps=456 q=-0.0 size=N/A time=00:14:53.05 bitrate=N/A speed=  19x    frame=21653 fps=456 q=-0.0 size=N/A time=00:15:03.11 bitrate=N/A speed=  19x    frame=21882 fps=456 q=-0.0 size=N/A time=00:15:12.66 bitrate=N/A speed=  19x    frame=22072 fps=455 q=-0.0 size=N/A time=00:15:20.58 bitrate=N/A speed=  19x    frame=22244 fps=454 q=-0.0 size=N/A time=00:15:27.76 bitrate=N/A speed=18.9x    frame=22481 fps=454 q=-0.0 size=N/A time=00:15:37.64 bitrate=N/A speed=18.9x    frame=22749 fps=455 q=-0.0 size=N/A time=00:15:48.82 bitrate=N/A speed=  19x    frame=22960 fps=454 q=-0.0 size=N/A time=00:15:57.62 bitrate=N/A speed=18.9x    frame=23148 fps=453 q=-0.0 size=N/A time=00:16:05.46 bitrate=N/A speed=18.9x    frame=23394 fps=453 q=-0.0 size=N/A time=00:16:15.72 bitrate=N/A speed=18.9x    frame=23625 fps=453 q=-0.0 size=N/A time=00:16:25.35 bitrate=N/A speed=18.9x    frame=23855 fps=453 q=-0.0 size=N/A time=00:16:34.95 bitrate=N/A speed=18.9x    frame=24104 fps=454 q=-0.0 size=N/A time=00:16:45.33 bitrate=N/A speed=18.9x    frame=24329 fps=453 q=-0.0 size=N/A time=00:16:54.72 bitrate=N/A speed=18.9x    frame=24542 fps=453 q=-0.0 size=N/A time=00:17:03.60 bitrate=N/A speed=18.9x    frame=24771 fps=453 q=-0.0 size=N/A time=00:17:13.15 bitrate=N/A speed=18.9x    frame=25010 fps=453 q=-0.0 size=N/A time=00:17:23.12 bitrate=N/A speed=18.9x    frame=25249 fps=453 q=-0.0 size=N/A time=00:17:33.09 bitrate=N/A speed=18.9x    frame=25504 fps=454 q=-0.0 size=N/A time=00:17:43.72 bitrate=N/A speed=18.9x    frame=25740 fps=454 q=-0.0 size=N/A time=00:17:53.57 bitrate=N/A speed=18.9x    frame=25954 fps=453 q=-0.0 size=N/A time=00:18:02.49 bitrate=N/A speed=18.9x    frame=26209 fps=454 q=-0.0 size=N/A time=00:18:13.13 bitrate=N/A speed=18.9x    frame=26460 fps=454 q=-0.0 size=N/A time=00:18:23.60 bitrate=N/A speed=18.9x    frame=26717 fps=454 q=-0.0 size=N/A time=00:18:34.32 bitrate=N/A speed=18.9x    frame=26988 fps=455 q=-0.0 size=N/A time=00:18:45.62 bitrate=N/A speed=  19x    frame=27220 fps=455 q=-0.0 size=N/A time=00:18:55.30 bitrate=N/A speed=  19x    frame=27462 fps=455 q=-0.0 size=N/A time=00:19:05.39 bitrate=N/A speed=  19x    frame=27691 fps=455 q=-0.0 size=N/A time=00:19:14.94 bitrate=N/A speed=  19x    frame=27896 fps=454 q=-0.0 size=N/A time=00:19:23.49 bitrate=N/A speed=  19x    frame=28159 fps=455 q=-0.0 size=N/A time=00:19:34.46 bitrate=N/A speed=  19x    frame=28377 fps=455 q=-0.0 size=N/A time=00:19:43.55 bitrate=N/A speed=  19x    frame=28623 fps=455 q=-0.0 size=N/A time=00:19:53.81 bitrate=N/A speed=  19x    frame=28838 fps=454 q=-0.0 size=N/A time=00:20:02.78 bitrate=N/A speed=  19x    frame=29070 fps=454 q=-0.0 size=N/A time=00:20:12.46 bitrate=N/A speed=  19x    frame=29313 fps=455 q=-0.0 size=N/A time=00:20:22.59 bitrate=N/A speed=  19x    frame=29580 fps=455 q=-0.0 size=N/A time=00:20:33.73 bitrate=N/A speed=  19x    frame=29800 fps=455 q=-0.0 size=N/A time=00:20:42.90 bitrate=N/A speed=  19x    frame=30018 fps=455 q=-0.0 size=N/A time=00:20:52.00 bitrate=N/A speed=  19x    frame=30193 fps=454 q=-0.0 size=N/A time=00:20:59.29 bitrate=N/A speed=18.9x    frame=30419 fps=454 q=-0.0 size=N/A time=00:21:08.72 bitrate=N/A speed=18.9x    frame=30663 fps=454 q=-0.0 size=N/A time=00:21:18.90 bitrate=N/A speed=18.9x    frame=30858 fps=453 q=-0.0 size=N/A time=00:21:27.03 bitrate=N/A speed=18.9x    frame=31064 fps=453 q=-0.0 size=N/A time=00:21:35.62 bitrate=N/A speed=18.9x    frame=31247 fps=452 q=-0.0 size=N/A time=00:21:43.26 bitrate=N/A speed=18.9x    frame=31393 fps=451 q=-0.0 size=N/A time=00:21:49.34 bitrate=N/A speed=18.8x    frame=31500 fps=449 q=-0.0 size=N/A time=00:21:53.81 bitrate=N/A speed=18.7x    frame=31611 fps=447 q=-0.0 size=N/A time=00:21:58.44 bitrate=N/A speed=18.7x    frame=31729 fps=446 q=-0.0 size=N/A time=00:22:03.36 bitrate=N/A speed=18.6x    frame=31867 fps=444 q=-0.0 size=N/A time=00:22:09.11 bitrate=N/A speed=18.5x    frame=32072 fps=444 q=-0.0 size=N/A time=00:22:17.66 bitrate=N/A speed=18.5x    frame=32336 fps=444 q=-0.0 size=N/A time=00:22:28.68 bitrate=N/A speed=18.5x    frame=32519 fps=444 q=-0.0 size=N/A time=00:22:36.31 bitrate=N/A speed=18.5x    frame=32704 fps=443 q=-0.0 size=N/A time=00:22:44.02 bitrate=N/A speed=18.5x    frame=32995 fps=444 q=-0.0 size=N/A time=00:22:56.16 bitrate=N/A speed=18.5x    frame=33269 fps=445 q=-0.0 size=N/A time=00:23:07.59 bitrate=N/A speed=18.5x    frame=33541 fps=445 q=-0.0 size=N/A time=00:23:18.93 bitrate=N/A speed=18.6x    frame=33826 fps=446 q=-0.0 size=N/A time=00:23:30.82 bitrate=N/A speed=18.6x    frame=34094 fps=447 q=-0.0 size=N/A time=00:23:42.00 bitrate=N/A speed=18.6x    frame=34329 fps=447 q=-0.0 size=N/A time=00:23:51.80 bitrate=N/A speed=18.6x    frame=34614 fps=447 q=-0.0 size=N/A time=00:24:03.69 bitrate=N/A speed=18.7x    [Parsed_psnr_10 @ 000002d2ba6e49c0] PSNR y:46.886332 u:49.286156 v:48.860973 average:47.499371 min:34.793402 max:inf
[out#0/null @ 000002d2b3c22f00] video:14961KiB audio:272296KiB subtitle:0KiB other streams:0KiB global headers:0KiB muxing overhead: unknown
frame=34818 fps=447 q=-0.0 Lsize=N/A time=00:24:12.20 bitrate=N/A speed=18.7x    
